<?xml version="1.0" standalone="no"?>
<!DOCTYPE svg PUBLIC "-//W3C//DTD SVG 20010904//EN"
 "http://www.w3.org/TR/2001/REC-SVG-20010904/DTD/svg10.dtd">
<svg version="1.0" xmlns="http://www.w3.org/2000/svg"
 width="225.000000pt" height="225.000000pt" viewBox="0 0 225.000000 225.000000"
 preserveAspectRatio="xMidYMid meet">
<metadata>
Created by potrace 1.11, written by Peter Selinger 2001-2013
</metadata>
<g transform="translate(0.000000,225.000000) scale(0.100000,-0.100000)"
fill="#000000" stroke="none">
<path d="M0 1125 l0 -1125 1125 0 1125 0 0 1125 0 1125 -1125 0 -1125 0 0
-1125z m1332 821 c262 -66 470 -245 576 -492 92 -218 88 -475 -12 -688 -109
-231 -317 -403 -566 -467 -109 -27 -281 -29 -389 -4 -316 74 -558 311 -637
623 -58 228 -13 489 117 679 48 70 145 169 215 219 197 141 460 190 696 130z"/>
<path d="M1030 1820 c-231 -31 -437 -182 -539 -397 -80 -167 -89 -355 -26
-536 23 -68 83 -177 96 -177 6 0 143 152 477 526 l90 102 274 -312 c151 -171
280 -311 288 -311 9 0 35 40 62 95 103 208 104 419 2 626 -133 272 -421 425
-724 384z"/>
<path d="M893 857 l-232 -262 26 -20 c163 -128 376 -180 573 -141 91 18 241
86 297 134 l32 27 -151 170 c-82 94 -175 199 -206 235 -32 35 -68 76 -82 91
l-25 27 -232 -261z"/>
</g>
</svg>
